<svg
        xmlns="http://www.w3.org/2000/svg"
        xmlns:xlink="http://www.w3.org/1999/xlink"
        width="1.1cm" height="0.8cm">
    <path fill-rule="evenodd"  fill="rgb(184, 167, 97)"
          d="M40.357,18.243 C39.288,19.129 37.696,18.981 36.810,17.911 C36.441,17.465 36.267,16.902 36.321,16.327 C36.375,15.751 36.651,15.230 37.096,14.861 C37.417,14.595 37.892,14.640 38.158,14.961 C38.424,15.282 38.379,15.757 38.058,16.023 C37.923,16.135 37.840,16.293 37.823,16.468 C37.807,16.643 37.860,16.813 37.972,16.948 C38.327,17.378 38.966,17.437 39.395,17.082 C39.693,16.834 39.877,16.486 39.914,16.100 C39.950,15.714 39.833,15.336 39.586,15.038 C39.245,14.626 38.763,14.371 38.231,14.322 C37.698,14.270 37.178,14.432 36.766,14.773 C36.116,15.312 35.761,16.105 35.793,16.950 C35.820,17.685 35.831,19.683 35.832,19.768 C35.832,19.809 35.815,19.844 35.809,19.883 C35.815,19.921 35.832,19.956 35.832,19.996 C35.832,20.412 35.494,20.750 35.078,20.750 L21.789,20.750 L21.789,25.575 C23.210,25.894 24.283,27.085 24.331,28.525 C24.335,28.558 24.337,28.592 24.337,28.626 C24.337,29.043 24.000,29.380 23.583,29.380 C23.582,29.380 23.580,29.380 23.578,29.380 L18.492,29.380 C18.076,29.380 17.738,29.043 17.738,28.626 C17.738,27.142 18.827,25.901 20.281,25.574 L20.281,20.750 L6.993,20.750 C6.613,20.750 6.311,20.463 6.259,20.097 C6.211,19.996 6.178,19.887 6.178,19.768 C6.179,19.683 6.190,17.685 6.217,16.950 C6.249,16.105 5.894,15.312 5.244,14.773 C4.832,14.432 4.313,14.270 3.779,14.322 C3.247,14.371 2.765,14.626 2.424,15.038 C2.177,15.336 2.060,15.714 2.096,16.100 C2.133,16.486 2.317,16.834 2.616,17.082 C3.044,17.437 3.683,17.378 4.039,16.948 C4.151,16.813 4.203,16.643 4.187,16.468 C4.170,16.293 4.087,16.135 3.952,16.023 C3.631,15.757 3.586,15.282 3.852,14.961 C4.118,14.640 4.593,14.595 4.914,14.861 C5.359,15.230 5.635,15.751 5.689,16.327 C5.743,16.902 5.569,17.465 5.200,17.911 C4.314,18.981 2.722,19.130 1.653,18.243 C1.044,17.739 0.668,17.027 0.595,16.240 C0.521,15.453 0.758,14.684 1.263,14.075 C1.861,13.353 2.705,12.907 3.639,12.820 C4.571,12.732 5.485,13.013 6.207,13.612 C7.221,14.452 7.774,15.689 7.725,17.006 C7.707,17.492 7.696,18.583 7.691,19.241 L34.319,19.241 C34.314,18.583 34.304,17.491 34.285,17.006 C34.236,15.689 34.789,14.452 35.803,13.612 C36.525,13.013 37.437,12.731 38.371,12.820 C39.305,12.907 40.149,13.353 40.748,14.075 C41.252,14.684 41.489,15.453 41.416,16.240 C41.342,17.027 40.966,17.739 40.357,18.243 ZM19.449,27.872 L22.622,27.872 C22.323,27.349 21.724,26.992 21.035,26.992 C20.347,26.992 19.748,27.349 19.449,27.872 ZM32.721,17.984 C32.719,17.983 32.718,17.984 32.716,17.984 L9.355,17.984 C8.938,17.984 8.600,17.646 8.600,17.229 C8.600,11.028 13.168,5.887 19.113,4.959 C18.732,4.514 18.493,3.943 18.493,3.313 C18.493,1.911 19.633,0.770 21.035,0.770 C22.437,0.770 23.578,1.911 23.578,3.313 C23.578,3.943 23.339,4.514 22.958,4.958 C28.873,5.883 33.426,10.978 33.470,17.139 C33.473,17.169 33.475,17.199 33.475,17.229 C33.475,17.646 33.138,17.984 32.721,17.984 ZM21.035,2.279 C20.465,2.279 20.001,2.743 20.001,3.313 C20.001,3.883 20.465,4.347 21.035,4.347 C21.606,4.347 22.070,3.883 22.070,3.313 C22.070,2.743 21.606,2.279 21.035,2.279 ZM21.035,6.303 C15.264,6.303 10.523,10.801 10.134,16.475 L31.936,16.475 C31.547,10.801 26.807,6.303 21.035,6.303 Z"/>
</svg>