<svg
        xmlns="http://www.w3.org/2000/svg"
        xmlns:xlink="http://www.w3.org/1999/xlink"
        width="1.305cm" height="0.6cm">
    <path fill-rule="evenodd"  fill="rgb(184, 167, 97)"
          d="M35.135,13.975 L33.444,13.975 C33.057,13.975 32.744,13.662 32.744,13.276 C32.744,12.889 33.057,12.576 33.444,12.576 L35.135,12.576 C35.265,12.576 35.512,12.268 35.512,11.785 L35.512,4.759 C35.512,4.276 35.265,3.968 35.135,3.968 L33.444,3.968 C33.057,3.968 32.744,3.655 32.744,3.268 C32.744,2.882 33.057,2.569 33.444,2.569 L35.135,2.569 C36.131,2.569 36.911,3.531 36.911,4.759 L36.911,11.785 C36.911,13.014 36.131,13.975 35.135,13.975 ZM30.266,16.530 L25.762,16.530 C24.681,16.530 23.802,15.548 23.802,14.340 L23.802,10.995 L13.323,10.995 C13.269,10.995 13.222,10.975 13.171,10.964 L13.171,14.340 C13.171,15.548 12.292,16.530 11.211,16.530 L6.707,16.530 C5.626,16.530 4.746,15.548 4.746,14.340 L4.746,2.204 C4.746,0.996 5.626,0.014 6.707,0.014 L11.211,0.014 C12.292,0.014 13.171,0.996 13.171,2.204 L13.171,5.580 C13.222,5.569 13.269,5.550 13.323,5.550 L23.802,5.550 L23.802,2.204 C23.802,0.996 24.681,0.014 25.762,0.014 L30.266,0.014 C31.348,0.014 32.227,0.996 32.227,2.204 L32.227,14.340 C32.227,15.548 31.348,16.530 30.266,16.530 ZM11.772,2.204 C11.772,1.775 11.515,1.414 11.211,1.414 L6.707,1.414 C6.402,1.414 6.145,1.775 6.145,2.204 L6.145,14.340 C6.145,14.769 6.402,15.131 6.707,15.131 L11.211,15.131 C11.515,15.131 11.772,14.769 11.772,14.340 L11.772,2.204 ZM13.323,6.949 C13.269,6.949 13.222,6.930 13.171,6.919 L13.171,9.626 C13.222,9.614 13.269,9.595 13.323,9.595 L23.802,9.595 L23.802,6.949 L13.323,6.949 ZM30.828,2.204 C30.828,1.775 30.571,1.414 30.266,1.414 L25.762,1.414 C25.458,1.414 25.201,1.775 25.201,2.204 L25.201,14.340 C25.201,14.769 25.458,15.131 25.762,15.131 L30.266,15.131 C30.571,15.131 30.828,14.769 30.828,14.340 L30.828,2.204 ZM1.838,12.576 L3.529,12.576 C3.916,12.576 4.229,12.889 4.229,13.276 C4.229,13.662 3.916,13.975 3.529,13.975 L1.838,13.975 C0.842,13.975 0.062,13.014 0.062,11.785 L0.062,4.759 C0.062,3.531 0.842,2.569 1.838,2.569 L3.529,2.569 C3.916,2.569 4.229,2.882 4.229,3.268 C4.229,3.655 3.916,3.968 3.529,3.968 L1.838,3.968 C1.709,3.968 1.461,4.276 1.461,4.759 L1.461,11.785 C1.461,12.268 1.709,12.576 1.838,12.576 Z"/>
</svg>