<svg
        xmlns="http://www.w3.org/2000/svg"
        xmlns:xlink="http://www.w3.org/1999/xlink"
        width="0.811cm" height="0.741cm">
    <path fill-rule="evenodd"  fill="rgb(0, 0, 0)"
          d="M22.417,20.281 C22.332,20.412 22.187,20.491 22.031,20.491 L1.096,20.491 C0.941,20.491 0.797,20.413 0.712,20.284 C0.627,20.155 0.612,19.991 0.674,19.849 L3.953,12.253 C4.026,12.084 4.191,11.975 4.375,11.975 L7.373,11.975 C7.627,11.975 7.832,12.181 7.832,12.435 C7.832,12.688 7.627,12.894 7.373,12.894 L4.677,12.894 L1.794,19.572 L21.321,19.572 L18.318,12.894 L15.435,12.894 C15.181,12.894 14.975,12.688 14.975,12.435 C14.975,12.181 15.181,11.975 15.435,11.975 L18.615,11.975 C18.796,11.975 18.960,12.081 19.034,12.246 L22.450,19.843 C22.514,19.985 22.501,20.150 22.417,20.281 ZM11.597,16.263 C11.425,16.263 11.267,16.167 11.188,16.013 C11.012,15.669 6.879,7.554 6.879,5.119 C6.879,2.518 8.996,0.401 11.597,0.401 C14.199,0.401 16.316,2.518 16.316,5.119 C16.316,7.554 12.182,15.669 12.006,16.013 C11.928,16.167 11.770,16.263 11.597,16.263 ZM11.597,1.320 C9.502,1.320 7.798,3.024 7.798,5.119 C7.798,6.772 10.250,12.062 11.597,14.781 C12.944,12.062 15.397,6.771 15.397,5.119 C15.397,3.024 13.692,1.320 11.597,1.320 ZM8.498,5.282 C8.498,3.573 9.888,2.182 11.597,2.182 C13.306,2.182 14.697,3.573 14.697,5.282 C14.697,6.991 13.306,8.382 11.597,8.382 C9.888,8.382 8.498,6.991 8.498,5.282 ZM13.778,5.282 C13.778,4.080 12.800,3.102 11.597,3.102 C10.395,3.102 9.417,4.080 9.417,5.282 C9.417,6.485 10.395,7.463 11.597,7.463 C12.800,7.463 13.778,6.485 13.778,5.282 Z"/>
</svg>