<svg
        xmlns="http://www.w3.org/2000/svg"
        xmlns:xlink="http://www.w3.org/1999/xlink"
        width="0.776cm" height="0.741cm">
    <path fill-rule="evenodd"  fill="rgb(0, 0, 0)"
          d="M14.779,20.504 C14.779,20.504 14.778,20.504 14.778,20.504 C11.284,20.504 7.751,18.975 5.086,16.310 C1.505,12.729 0.051,7.629 1.379,3.312 C1.431,3.114 1.493,2.929 1.566,2.763 L1.581,2.721 C1.604,2.658 1.627,2.596 1.651,2.534 C1.763,2.252 1.907,2.033 2.079,1.886 C2.092,1.875 3.568,0.789 5.079,0.789 C5.570,0.789 6.007,0.906 6.378,1.136 C8.687,2.568 10.099,4.671 9.976,6.493 C9.965,6.652 9.881,6.797 9.749,6.886 L6.468,9.107 C6.494,9.538 6.725,10.746 8.312,12.594 C9.991,14.549 11.955,14.800 12.673,14.822 L14.766,11.542 C14.846,11.416 14.978,11.330 15.125,11.309 C15.287,11.284 15.455,11.272 15.623,11.272 C17.291,11.272 19.258,12.490 20.756,14.451 C21.226,15.067 21.360,15.852 21.143,16.725 C20.819,18.022 19.720,19.366 19.354,19.534 C17.950,20.177 16.410,20.504 14.779,20.504 ZM2.747,2.676 C2.730,2.692 2.675,2.756 2.612,2.916 C2.591,2.969 2.572,3.021 2.553,3.073 L2.531,3.134 C2.527,3.145 2.522,3.155 2.518,3.166 C2.464,3.287 2.417,3.426 2.378,3.580 C2.376,3.588 2.373,3.596 2.371,3.605 C1.148,7.563 2.501,12.263 5.817,15.579 C8.289,18.051 11.556,19.470 14.778,19.470 C14.778,19.470 14.779,19.470 14.779,19.470 C16.243,19.470 17.622,19.182 18.877,18.615 C19.258,18.281 20.830,16.250 19.935,15.079 C18.609,13.343 16.860,12.243 15.503,12.309 L13.394,15.614 C13.308,15.749 13.160,15.836 13.001,15.851 C13.001,15.851 12.924,15.858 12.785,15.858 C12.073,15.858 9.591,15.671 7.528,13.268 C5.169,10.519 5.420,8.896 5.456,8.719 C5.483,8.588 5.561,8.472 5.673,8.396 L8.947,6.181 C8.892,4.818 7.651,3.142 5.833,2.015 C5.628,1.888 5.374,1.823 5.079,1.823 C4.098,1.823 2.959,2.520 2.747,2.676 Z"/>
</svg>