<svg
        xmlns="http://www.w3.org/2000/svg"
        xmlns:xlink="http://www.w3.org/1999/xlink"
        width="1.094cm" height="1.341cm">
    <path fill-rule="evenodd"  fill="rgb(184, 167, 97)"
          d="M30.734,32.855 C30.598,33.091 30.342,33.232 30.071,33.220 L25.611,33.041 L23.541,37.353 C23.426,37.592 23.191,37.751 22.927,37.767 C22.911,37.768 22.896,37.768 22.881,37.768 C22.633,37.768 22.401,37.643 22.265,37.433 L15.498,26.927 L8.731,37.433 C8.596,37.643 8.363,37.768 8.115,37.768 C8.100,37.768 8.085,37.768 8.070,37.767 C7.805,37.751 7.570,37.592 7.455,37.353 L5.385,33.041 L0.925,33.220 C0.657,33.231 0.399,33.091 0.262,32.855 C0.126,32.620 0.131,32.329 0.277,32.098 L5.920,23.140 C5.252,22.996 4.615,22.757 4.209,22.199 C3.613,21.380 3.808,20.293 3.981,19.333 C4.091,18.720 4.205,18.086 4.081,17.705 C3.968,17.356 3.517,16.927 3.082,16.512 C2.361,15.826 1.544,15.048 1.544,13.996 C1.544,12.943 2.361,12.166 3.082,11.479 C3.517,11.064 3.968,10.636 4.081,10.286 C4.205,9.905 4.091,9.271 3.981,8.658 C3.809,7.698 3.613,6.610 4.209,5.792 C4.810,4.966 5.912,4.816 6.883,4.684 C7.495,4.601 8.128,4.515 8.444,4.285 C8.752,4.061 9.025,3.491 9.289,2.940 C9.717,2.050 10.201,1.041 11.185,0.721 C11.376,0.659 11.579,0.628 11.789,0.628 C12.534,0.628 13.253,1.014 13.949,1.387 C14.506,1.685 15.083,1.994 15.498,1.994 C15.914,1.994 16.490,1.685 17.047,1.387 C17.743,1.014 18.463,0.628 19.207,0.628 C19.417,0.628 19.620,0.659 19.811,0.721 C20.795,1.041 21.280,2.050 21.707,2.941 C21.971,3.492 22.245,4.061 22.553,4.286 C22.868,4.515 23.501,4.601 24.113,4.684 C25.085,4.816 26.186,4.966 26.787,5.792 C27.383,6.611 27.188,7.698 27.015,8.659 C26.905,9.271 26.792,9.905 26.915,10.286 C27.029,10.636 27.479,11.065 27.915,11.479 C28.635,12.166 29.452,12.943 29.452,13.996 C29.452,15.048 28.635,15.825 27.915,16.512 C27.479,16.927 27.029,17.356 26.915,17.706 C26.792,18.086 26.905,18.720 27.015,19.333 C27.188,20.293 27.383,21.381 26.787,22.199 C26.382,22.757 25.744,22.996 25.076,23.140 L30.720,32.098 C30.865,32.329 30.870,32.620 30.734,32.855 ZM2.258,31.701 L5.808,31.558 C6.101,31.556 6.371,31.710 6.498,31.973 L8.209,35.539 L13.971,26.593 C13.964,26.597 13.956,26.601 13.949,26.605 C13.253,26.978 12.534,27.363 11.789,27.363 C11.579,27.363 11.376,27.332 11.185,27.270 C10.201,26.951 9.716,25.941 9.289,25.050 C9.025,24.500 8.752,23.930 8.444,23.706 C8.234,23.553 7.879,23.466 7.488,23.399 L2.258,31.701 ZM25.574,19.592 C25.432,18.801 25.285,17.984 25.522,17.253 C25.750,16.551 26.337,15.992 26.904,15.452 C27.412,14.968 27.988,14.420 27.988,13.996 C27.988,13.571 27.412,13.024 26.905,12.540 C26.337,12.000 25.750,11.441 25.522,10.738 C25.285,10.008 25.432,9.191 25.574,8.399 C25.694,7.728 25.831,6.967 25.603,6.654 C25.369,6.333 24.597,6.228 23.916,6.135 C23.124,6.028 22.305,5.917 21.691,5.470 C21.084,5.028 20.729,4.289 20.386,3.574 C20.086,2.949 19.746,2.240 19.359,2.114 C19.314,2.100 19.264,2.093 19.207,2.093 C18.830,2.093 18.276,2.390 17.739,2.678 C17.023,3.061 16.282,3.459 15.498,3.459 C14.715,3.459 13.974,3.061 13.257,2.678 C12.721,2.390 12.166,2.093 11.789,2.093 C11.732,2.093 11.682,2.100 11.638,2.114 C11.250,2.240 10.910,2.949 10.610,3.574 C10.267,4.289 9.912,5.028 9.306,5.470 C8.691,5.917 7.872,6.028 7.080,6.135 C6.399,6.228 5.627,6.333 5.393,6.654 C5.165,6.967 5.302,7.728 5.422,8.399 C5.565,9.190 5.711,10.008 5.474,10.738 C5.246,11.440 4.659,11.999 4.092,12.540 C3.584,13.024 3.009,13.571 3.009,13.996 C3.009,14.420 3.584,14.968 4.092,15.452 C4.659,15.992 5.246,16.551 5.474,17.253 C5.711,17.983 5.564,18.801 5.422,19.592 C5.302,20.263 5.165,21.024 5.393,21.337 C5.627,21.658 6.399,21.763 7.081,21.856 C7.872,21.963 8.691,22.075 9.305,22.521 C9.912,22.963 10.267,23.702 10.610,24.417 C10.910,25.042 11.250,25.751 11.638,25.877 C11.682,25.892 11.732,25.899 11.789,25.899 C12.166,25.899 12.720,25.602 13.257,25.314 C13.974,24.930 14.715,24.532 15.498,24.532 C16.282,24.532 17.023,24.930 17.739,25.314 C18.276,25.602 18.830,25.899 19.207,25.899 C19.264,25.899 19.314,25.892 19.359,25.877 C19.746,25.752 20.086,25.042 20.386,24.417 C20.729,23.702 21.084,22.963 21.691,22.522 C22.305,22.075 23.124,21.963 23.916,21.856 C24.597,21.763 25.370,21.658 25.603,21.337 C25.831,21.024 25.694,20.263 25.574,19.592 ZM23.509,23.399 C23.117,23.466 22.762,23.553 22.552,23.706 C22.244,23.930 21.971,24.500 21.707,25.051 C21.280,25.941 20.795,26.951 19.811,27.270 C19.620,27.332 19.417,27.363 19.207,27.363 C18.462,27.363 17.743,26.978 17.047,26.605 C17.040,26.601 17.033,26.597 17.026,26.593 L22.787,35.539 L24.499,31.973 C24.625,31.710 24.898,31.550 25.188,31.558 L28.738,31.701 L23.509,23.399 Z"/>
</svg>