<svg id="logo" xmlns="http://www.w3.org/2000/svg" width="174" height="157" viewBox="0 0 174 157">
  <metadata><?xpacket begin="﻿" id="W5M0MpCehiHzreSzNTczkc9d"?>
<x:xmpmeta xmlns:x="adobe:ns:meta/" x:xmptk="Adobe XMP Core 5.6-c140 79.160451, 2017/05/06-01:08:21        ">
   <rdf:RDF xmlns:rdf="http://www.w3.org/1999/02/22-rdf-syntax-ns#">
      <rdf:Description rdf:about=""/>
   </rdf:RDF>
</x:xmpmeta>
                                                                                                    
                                                                                                    
                                                                                                    
                                                                                                    
                                                                                                    
                                                                                                    
                                                                                                    
                                                                                                    
                                                                                                    
                                                                                                    
                                                                                                    
                                                                                                    
                                                                                                    
                                                                                                    
                                                                                                    
                                                                                                    
                                                                                                    
                                                                                                    
                                                                                                    
                                                                                                    
                           
<?xpacket end="w"?></metadata>
<defs>
    <style>
      .cls-1 {
        fill: #fff;
      }

      .cls-1, .cls-2 {
        fill-rule: evenodd;
      }

      .cls-2 {
        fill: #b8a761;
      }
    </style>
  </defs>
  <path id="Фигура_2_copy" data-name="Фигура 2 copy" class="cls-1" d="M103.681,19.337a27.144,27.144,0,0,0-4.6,1.191c-10.13,4.1-9.13,13.249-8.951,23.529,0.114,4.734.7,29.325,0.633,35.786C90.6,94.219,87.082,101.02,85.9,104.056c-0.273.7-3.7,10.725-16.713,13.767-18.072,4.222-28.6-2.742-32.766-10.727-4.218-8.09-3.228-16.214-1.465-20.2a22.194,22.194,0,0,1,7.5-8.708c2.46-1.842,14.537-6.9,24.246,1.658-1.388-1.224,3.534,2.233,5.447,8,0.232,0.684.923,2.873,0.985,3.332a1.47,1.47,0,0,1,.032.511,1.188,1.188,0,0,1-.212.559,0.533,0.533,0,0,1-.713.1,1,1,0,0,1-.582-0.825,18.387,18.387,0,0,0-1.6-4.966,17.815,17.815,0,0,0-6.836-7.213,14.257,14.257,0,0,0-1.567-.722c-15.6-6.011-21.08,5.267-22.271,8.1-6.221,14.787,1.514,35.531,27.3,28.338,11.857-4.743,14.128-15.729,13.921-25.8-0.144-4.788-.487-20.872-0.457-26.841,0.012-8.494-.758-15.972.408-21.02,2.9-13.027,6.9-16.38,9.4-18.27a22.362,22.362,0,0,1,7.211-3.52,25.309,25.309,0,0,1,5.047-.881,3.972,3.972,0,0,1,1.612.19C104.1,19.033,104.055,19.172,103.681,19.337Zm6.8,43.27a14.9,14.9,0,0,0-6.325-.43,7.655,7.655,0,0,0-1.933.722,4.616,4.616,0,0,0-1.519,1.245,2.531,2.531,0,0,0-.613,1.75,2.867,2.867,0,0,0,.947,1.974,5.465,5.465,0,0,0,2.855,1.537,10.689,10.689,0,0,0,3.359.123,16.891,16.891,0,0,0,10.386-4.3A57.707,57.707,0,0,0,110.477,62.607Zm14.862,3.352c11.9,4.44,15.913,15.154,14.909,25.364-0.794,4.211-3.317,14.76-17.3,22.587a37.621,37.621,0,0,1-17.922,4.183,32.4,32.4,0,0,1-15.9-5.007,28.743,28.743,0,0,1-6.622-6.068c-1.336-1.677-.635-3.464.747-1.782a29.585,29.585,0,0,0,5.675,5.227,36.945,36.945,0,0,0,9.659,3.513c5.432,0.959,13.686,1.08,19.85-3.909,16.988-13.773,9.112-37.508,3.839-41.931a28.7,28.7,0,0,1-13.4,3.755,15.073,15.073,0,0,1-3.732-.16,13.232,13.232,0,0,1-3.928-1.212,6.345,6.345,0,0,1-2.582-2.494,4.535,4.535,0,0,1-.355-3.652,4.889,4.889,0,0,1,2.224-2.989,9.126,9.126,0,0,1,3.632-1.185,24.6,24.6,0,0,1,4.255-.043,30.14,30.14,0,0,1,3.865.609c1.283,0.292,2.376.658,3.6,1.038a21.506,21.506,0,0,1,3.171,1.267c2.458-2.527,8.173-15.1-.706-24.819-21.427-23.4-54.667-8.541-62.677-3.554a47.367,47.367,0,0,0-8.852,6.974A45.087,45.087,0,0,0,39.428,51.99a27.66,27.66,0,0,0-3.3,11.1,22.4,22.4,0,0,0,1.478,8.255c2.254,4.995,7.587,8.258,7.587,8.258a22.907,22.907,0,0,0,6.245,1.876c4.845,0.643,12.774-.29,17.925-7.2A17.886,17.886,0,0,0,73.257,63.6a12.888,12.888,0,0,0-6.811-12.838,32.233,32.233,0,0,0-5.841-2.51c-2.057-.67-1.423-2.15.188-1.738a24.9,24.9,0,0,1,7.144,3.111,15.489,15.489,0,0,1,7.487,13.761A17.787,17.787,0,0,1,73.3,71.794,21.036,21.036,0,0,1,48,82.83a18.749,18.749,0,0,1-6.231-2.72,21.511,21.511,0,0,1-8.841-20.224,33.722,33.722,0,0,1,1.561-7.231A28.768,28.768,0,0,1,37.5,46.4c4.1-6.618,13.516-15.13,25.39-19.469,6.754-2.463,19.214-6.593,38.74-2.271,3.433,0.76,11.036,2.535,17.195,6.13,8.263,4.822,18.967,13.514,13.327,27.523C130.75,61.8,127.22,64.7,125.339,65.96Z"/>
  <path id="Фигура_3_copy" data-name="Фигура 3 copy" class="cls-2" d="M60.5,8.563q-0.221.366-.454,0.7c0.28-.028.567-0.044,0.861-0.046a9.383,9.383,0,0,1,3.456.844,15.071,15.071,0,0,1,1.753.882s-0.849.269-1.952,0.569a16.664,16.664,0,0,1-3.522.663c-1.817.034-3.372-.3-3.773-0.921-0.5-.55-0.351-2.087.6-3.736a11.092,11.092,0,0,1,2.741-2.834,20.232,20.232,0,0,1,1.953-1.324s-0.162.85-.445,1.923A13.579,13.579,0,0,1,60.5,8.563ZM71.017,7.126a13.776,13.776,0,0,1,1.441,1.011s-0.8.13-1.838,0.25a14.863,14.863,0,0,1-3.257.11c-1.631-.221-2.961-0.738-3.219-1.348-0.355-.557.021-1.893,1.118-3.213a10.362,10.362,0,0,1,2.85-2.124A18.785,18.785,0,0,1,70.032.9s-0.264.729-.67,1.642a11.933,11.933,0,0,1-1.571,2.739c-0.167.2-.337,0.379-0.509,0.555,0.252,0.013.512,0.04,0.773,0.078A8.574,8.574,0,0,1,71.017,7.126ZM47.966,141.08c0.8-.022,1.584-0.019,2.34-0.005a18.65,18.65,0,0,1-1.352-1.777,18.363,18.363,0,0,1-2.529-8.587,27.416,27.416,0,0,1,.1-4.9l3.626,3.377a52.2,52.2,0,0,1,6.129,6.387c2.611,3.684,4.369,7.343,3.593,9.149-0.231.941-1.275,1.941-2.977,2.76a18.555,18.555,0,0,1-6.833,1.606,21.932,21.932,0,0,1-5.532-.513,39.34,39.34,0,0,1-5.786-1.7,46.334,46.334,0,0,1-6.237-2.883s2.435-.607,5.554-1.3A58.743,58.743,0,0,1,47.966,141.08ZM29.955,128.323q1.09,0.3,2.1.637a14.686,14.686,0,0,1-.41-10.414,27.142,27.142,0,0,1,1.507-4.428l2.315,4.061a45.331,45.331,0,0,1,3.644,7.481c1.234,4.056,1.657,7.835.4,9.235-0.5.779-1.752,1.38-3.529,1.638a17.888,17.888,0,0,1-6.6-.447c-2.957-.7-6.651-2.853-9.442-5.014a43.451,43.451,0,0,1-4.728-4.2c0-.005,2.363.075,5.369,0.265A52.419,52.419,0,0,1,29.955,128.323Zm-12.514-16.2c0.6,0.362,1.174.731,1.72,1.1a16.506,16.506,0,0,1-.061-1.951,17.309,17.309,0,0,1,2.549-7.6A27.39,27.39,0,0,1,24.194,100s0.465,1.873,1.018,4.3a40.159,40.159,0,0,1,1.244,7.744c-0.016,4-.74,7.519-2.278,8.447-1.339,1.142-5.24.852-9.448-1.522a25.534,25.534,0,0,1-7.085-6.831,39.773,39.773,0,0,1-3.116-4.907s2.115,0.622,4.776,1.518A45.341,45.341,0,0,1,17.441,112.119ZM10.459,94.461c0.448,0.466.875,0.931,1.274,1.393a15.264,15.264,0,0,1,.446-1.781,17.19,17.19,0,0,1,4.212-6.338,28.225,28.225,0,0,1,3.208-2.8c0.006,0-.03,1.833-0.129,4.185a36.316,36.316,0,0,1-.835,7.375c-1.051,3.645-2.638,6.647-4.276,7.114-1.512.709-4.949-.489-8.121-3.595a23.39,23.39,0,0,1-4.649-7.743,38.05,38.05,0,0,1-1.6-5.094s1.765,1.016,3.956,2.41A38.9,38.9,0,0,1,10.459,94.461Zm-1.2-16a15.088,15.088,0,0,1,.815-1.524,16.819,16.819,0,0,1,5.274-4.9,27.264,27.264,0,0,1,3.546-1.894s-0.444,1.664-1.069,3.792a34.234,34.234,0,0,1-2.464,6.567c-1.8,3.111-3.977,5.479-5.57,5.543-1.539.31-4.343-1.526-6.482-4.982A21.362,21.362,0,0,1,.886,73.124a34.9,34.9,0,0,1-.3-4.936s1.372,1.278,3.045,2.988a34.255,34.255,0,0,1,4.795,5.759C8.726,77.45,9,77.963,9.258,78.465Zm2.778-17.483a16.422,16.422,0,0,1,5.853-3.393,26.472,26.472,0,0,1,3.625-1.034s-0.767,1.434-1.806,3.25a31.789,31.789,0,0,1-3.693,5.47c-2.327,2.451-4.823,4.154-6.275,3.889C8.28,69.13,6.163,66.905,5,63.351a19.859,19.859,0,0,1-.427-7.645,33.69,33.69,0,0,1,.8-4.5s0.967,1.419,2.108,3.29a29.98,29.98,0,0,1,3.064,6.151q0.236,0.79.41,1.55A15.65,15.65,0,0,1,12.036,60.982ZM26.71,44.64s-0.984,1.175-2.3,2.639a29.529,29.529,0,0,1-4.481,4.287c-2.62,1.784-5.232,2.832-6.48,2.31-1.306-.314-2.727-2.725-3.028-6.13A18.6,18.6,0,0,1,11.6,40.809,32.074,32.074,0,0,1,13.2,36.921s0.6,1.447,1.254,3.336a26.146,26.146,0,0,1,1.518,6.1c0.031,0.5.047,1,.048,1.473a13.986,13.986,0,0,1,1.222-.894,15.846,15.846,0,0,1,5.975-2A25.78,25.78,0,0,1,26.71,44.64Zm3.746-10.259a24.306,24.306,0,0,1,3.2.29s-1.106.91-2.569,2.023a27.218,27.218,0,0,1-4.859,3.131c-2.7,1.165-5.256,1.639-6.271.952-1.11-.516-1.9-2.927-1.532-6.025a17.535,17.535,0,0,1,2.333-6,31.232,31.232,0,0,1,2.131-3.213s0.283,1.392.535,3.2a22.915,22.915,0,0,1,.248,5.73c-0.067.458-.146,0.9-0.236,1.333a13.763,13.763,0,0,1,1.268-.6A14.991,14.991,0,0,1,30.455,34.381Zm8.318-8.4A22.575,22.575,0,0,1,41.6,26.7s-1.148.663-2.652,1.45a24.744,24.744,0,0,1-4.9,2.086c-2.627.631-4.991,0.646-5.774-.131-0.9-.638-1.178-2.918-0.319-5.617a16.5,16.5,0,0,1,3.072-4.99,29.811,29.811,0,0,1,2.411-2.546s0.037,1.286-.03,2.934a20.254,20.254,0,0,1-.724,5.157c-0.137.4-.281,0.786-0.436,1.156,0.4-.129.809-0.245,1.235-0.341A13.949,13.949,0,0,1,38.774,25.976Zm3.446-8.029c-0.179.339-.368,0.659-0.562,0.968,0.372-.062.756-0.107,1.148-0.135a12.755,12.755,0,0,1,4.688.813A20.146,20.146,0,0,1,49.91,20.6s-1.125.445-2.587,0.95a22.033,22.033,0,0,1-4.694,1.2c-2.438.2-4.536-.126-5.1-0.929-0.694-.7-0.576-2.755.593-5.023A15.4,15.4,0,0,1,41.574,12.8a27.9,27.9,0,0,1,2.5-1.934s-0.15,1.144-.447,2.6A17.679,17.679,0,0,1,42.219,17.947Zm9.13-.755c-2.177-.122-3.973-0.682-4.356-1.459-0.51-.7-0.112-2.489,1.218-4.332A14.1,14.1,0,0,1,51.76,8.323a25.981,25.981,0,0,1,2.424-1.4s-0.271.99-.717,2.231a15.605,15.605,0,0,1-1.817,3.768c-0.2.272-.412,0.536-0.625,0.78,0.337-.006.678,0,1.027,0.023a11.445,11.445,0,0,1,4.022,1.27,18.839,18.839,0,0,1,2,1.162s-1.056.268-2.418,0.542A19.442,19.442,0,0,1,51.349,17.193Zm30.426,134.49a18.96,18.96,0,0,1-6.25,3.828,22.911,22.911,0,0,1-5.733,1.281,41.506,41.506,0,0,1-6.43.158,49.51,49.51,0,0,1-7.323-.911s2.242-1.371,5.135-3.059a63.166,63.166,0,0,1,9.364-4.784c0.8-.28,1.578-0.529,2.34-0.761a20.635,20.635,0,0,1-1.99-1.336,19.743,19.743,0,0,1-5.572-7.763,28.254,28.254,0,0,1-1.6-4.93l4.769,2.209A59.557,59.557,0,0,1,76.854,140c3.933,2.824,7.02,5.9,6.9,7.957C83.859,148.973,83.179,150.311,81.775,151.683ZM102.7,7.756a14.865,14.865,0,0,1-3.258.027C98.4,7.706,97.591,7.611,97.59,7.61a13.743,13.743,0,0,1,1.4-1.07A8.57,8.57,0,0,1,101.9,5.206c0.26-.049.518-0.087,0.769-0.11-0.178-.168-0.356-0.343-0.531-0.533a11.906,11.906,0,0,1-1.684-2.671C100.006,1,99.711.28,99.711,0.28a18.8,18.8,0,0,1,1.956.828,10.357,10.357,0,0,1,2.936,2c1.151,1.273,1.583,2.592,1.251,3.164C105.623,6.9,104.316,7.467,102.7,7.756Zm10.6,2.313c-0.376.64-1.916,1.036-3.732,1.078a16.671,16.671,0,0,1-3.547-.515c-1.114-.253-1.973-0.485-1.973-0.487a14.992,14.992,0,0,1,1.714-.955,9.38,9.38,0,0,1,3.418-.988c0.294-.011.581-0.007,0.862,0.01q-0.246-.321-0.483-0.677A13.613,13.613,0,0,1,108.2,4.307c-0.327-1.06-.527-1.9-0.525-1.9a20.22,20.22,0,0,1,2.006,1.241,11.1,11.1,0,0,1,2.858,2.717C113.558,7.97,113.77,9.5,113.3,10.069Zm46.34,90.5c-1.655-.4-3.367-3.33-4.57-6.928a36.346,36.346,0,0,1-1.143-7.333c-0.2-2.346-.31-4.174-0.3-4.176a28.361,28.361,0,0,1,3.322,2.663,17.182,17.182,0,0,1,4.473,6.156,15.09,15.09,0,0,1,.52,1.76c0.379-.478.787-0.961,1.214-1.445a38.947,38.947,0,0,1,6.308-5.143c2.131-1.484,3.85-2.576,3.851-2.573a37.764,37.764,0,0,1-1.387,5.157,23.411,23.411,0,0,1-4.321,7.931C164.56,99.87,161.177,101.212,159.636,100.566Zm-9.1,17.275c-1.576-.863-2.447-4.346-2.63-8.343a40.149,40.149,0,0,1,.919-7.791c0.451-2.442.834-4.332,0.837-4.333a27.253,27.253,0,0,1,2.7,3.562,17.311,17.311,0,0,1,2.864,7.483,16.564,16.564,0,0,1,.021,1.952c0.53-.394,1.088-0.787,1.672-1.173a45.327,45.327,0,0,1,7.988-3.711c2.621-1.007,4.711-1.721,4.708-1.717A39.632,39.632,0,0,1,166.7,108.8a25.538,25.538,0,0,1-6.794,7.121C155.805,118.474,151.919,118.927,150.533,117.841Zm-11.121,16.526c-1.786-.184-3.058-0.732-3.594-1.489-1.319-1.347-1.055-5.139.009-9.244a45.326,45.326,0,0,1,3.326-7.627l2.144-4.154a27.274,27.274,0,0,1,1.69,4.361,17.624,17.624,0,0,1,.621,8.424,17.984,17.984,0,0,1-.594,2q1-.376,2.075-0.724a52.277,52.277,0,0,1,9.321-1.583c2.994-.316,5.355-0.494,5.352-0.49a43.338,43.338,0,0,1-4.548,4.4c-2.7,2.277-6.3,4.588-9.224,5.405A17.887,17.887,0,0,1,139.412,134.367Zm-23.525,9.18c-0.852-1.772.751-5.5,3.206-9.292a52.185,52.185,0,0,1,5.856-6.638l3.481-3.525a27.411,27.411,0,0,1,.3,4.895,18.345,18.345,0,0,1-2.167,8.685,18.648,18.648,0,0,1-1.276,1.833c0.755-.046,1.535-0.082,2.338-0.094a58.761,58.761,0,0,1,9.967,1.191c3.147,0.564,5.605,1.065,5.6,1.069a46.558,46.558,0,0,1-6.111,3.141,39.294,39.294,0,0,1-5.71,1.942,21.913,21.913,0,0,1-5.505.744,18.579,18.579,0,0,1-6.894-1.318C117.243,145.432,116.158,144.477,115.887,143.547Zm-0.957,8.307c2.96,1.566,5.263,2.836,5.258,2.842a49.667,49.667,0,0,1-7.279,1.216,41.5,41.5,0,0,1-6.431.112,22.9,22.9,0,0,1-5.782-1.04,18.958,18.958,0,0,1-6.4-3.563c-1.46-1.312-2.2-2.62-2.129-3.637-0.21-2.049,2.746-5.253,6.556-8.239a59.552,59.552,0,0,1,8.182-4.735l4.673-2.407a28.235,28.235,0,0,1-1.4,4.993,19.747,19.747,0,0,1-5.241,7.99A20.783,20.783,0,0,1,103,146.8c0.77,0.2,1.563.416,2.369,0.663A63.258,63.258,0,0,1,114.93,151.854Zm4.13-136.08a19.448,19.448,0,0,1-4.33-.316c-1.372-.216-2.438-0.437-2.438-0.44a18.89,18.89,0,0,1,1.954-1.245,11.443,11.443,0,0,1,3.965-1.437c0.347-.04.688-0.057,1.025-0.066-0.223-.235-0.441-0.491-0.657-0.754a15.621,15.621,0,0,1-1.973-3.689c-0.5-1.222-.811-2.2-0.809-2.2a26.022,26.022,0,0,1,2.48,1.3,14.115,14.115,0,0,1,3.676,2.928c1.406,1.785,1.878,3.554,1.4,4.277C123,14.927,121.229,15.562,119.06,15.775Zm8.945,5.187a22.049,22.049,0,0,1-4.74-1c-1.482-.443-2.625-0.839-2.625-0.841a20.269,20.269,0,0,1,2.372-1.108A12.764,12.764,0,0,1,127.663,17c0.392,0.012.779,0.04,1.152,0.087-0.206-.3-0.408-0.613-0.6-0.944a17.739,17.739,0,0,1-1.589-4.416c-0.357-1.44-.556-2.577-0.555-2.577a27.851,27.851,0,0,1,2.574,1.828,15.4,15.4,0,0,1,3.621,3.845c1.263,2.217,1.467,4.269.8,4.993C132.532,20.646,130.45,21.06,128.005,20.962Zm14.649,6.744c-0.75.81-3.113,0.893-5.764,0.373a24.738,24.738,0,0,1-4.983-1.879c-1.536-.723-2.711-1.335-2.711-1.337a22.638,22.638,0,0,1,2.8-.839,13.951,13.951,0,0,1,5.279-.343c0.43,0.078.846,0.177,1.248,0.289-0.169-.363-0.33-0.742-0.483-1.136a20.2,20.2,0,0,1-.939-5.122c-0.136-1.644-.155-2.931-0.153-2.93a29.769,29.769,0,0,1,2.516,2.443,16.469,16.469,0,0,1,3.277,4.857C143.708,24.741,143.526,27.03,142.654,27.706Zm8.757,10.318c-0.985.729-3.557,0.362-6.305-.689a27.2,27.2,0,0,1-4.985-2.925c-1.509-1.05-2.653-1.911-2.652-1.913a24.288,24.288,0,0,1,3.187-.424,14.99,14.99,0,0,1,5.779.577,13.728,13.728,0,0,1,1.292.544c-0.108-.425-0.206-0.867-0.291-1.322a22.891,22.891,0,0,1,.007-5.736c0.176-1.813.4-3.216,0.4-3.216a31.169,31.169,0,0,1,2.263,3.121,17.508,17.508,0,0,1,2.582,5.9C153.19,35.02,152.5,37.462,151.411,38.024Zm7.053,12.814c-1.225.574-3.879-.364-6.571-2.037a29.552,29.552,0,0,1-4.657-4.1c-1.376-1.407-2.409-2.538-2.409-2.54a25.76,25.76,0,0,1,3.5.149,15.836,15.836,0,0,1,6.054,1.751,13.738,13.738,0,0,1,1.258.842c-0.019-.477-0.023-0.97-0.013-1.474a26.1,26.1,0,0,1,1.261-6.16c0.577-1.915,1.11-3.386,1.112-3.386a32.119,32.119,0,0,1,1.77,3.817,18.608,18.608,0,0,1,1.466,6.881C161.075,48,159.756,50.47,158.464,50.838Zm4.344,15.12c-1.439.326-4-1.271-6.432-3.623a31.839,31.839,0,0,1-3.919-5.311c-1.114-1.771-1.942-3.169-1.94-3.171a26.477,26.477,0,0,1,3.664.881,16.416,16.416,0,0,1,5.99,3.145,15.59,15.59,0,0,1,1.127,1.169q0.142-.765.345-1.566a29.987,29.987,0,0,1,2.8-6.274c1.061-1.918,1.965-3.376,1.968-3.376A33.58,33.58,0,0,1,167.4,52.3a19.865,19.865,0,0,1-.106,7.657C166.288,63.551,164.266,65.863,162.808,65.958Zm6.924,11.625c-1.993,3.542-4.716,5.494-6.267,5.249-1.595,0-3.865-2.273-5.8-5.305a34.189,34.189,0,0,1-2.737-6.458c-0.713-2.1-1.228-3.742-1.227-3.744a27.3,27.3,0,0,1,3.623,1.744,16.808,16.808,0,0,1,5.474,4.672,14.93,14.93,0,0,1,.878,1.489c0.233-.512.49-1.035,0.768-1.563A34.192,34.192,0,0,1,169,67.713c1.6-1.779,2.914-3.116,2.917-3.113a34.965,34.965,0,0,1-.092,4.944A21.358,21.358,0,0,1,169.732,77.583Z"/>
</svg>
